<?xml version="1.0" encoding="iso-8859-1"?>
<!-- Generator: Adobe Illustrator 16.0.0, SVG Export Plug-In . SVG Version: 6.00 Build 0)  -->
<!DOCTYPE svg PUBLIC "-//W3C//DTD SVG 1.1//EN" "http://www.w3.org/Graphics/SVG/1.1/DTD/svg11.dtd">
<svg version="1.1" id="Capa_1" xmlns="http://www.w3.org/2000/svg" xmlns:xlink="http://www.w3.org/1999/xlink" x="0px" y="0px"
	 width="471.815px" height="471.815px" viewBox="0 0 471.815 471.815" style="enable-background:new 0 0 471.815 471.815;"
	 xml:space="preserve">
<g>
	<g>
		<path d="M434.715,123.978c0-22.231-18.021-40.251-40.25-40.251H40.25C18.02,83.727,0,101.747,0,123.978v35.247h434.715V123.978
			L434.715,123.978z"/>
		<path d="M372.021,188.501c-18.22,0-35.312,4.912-50.029,13.475H0v122.11c0,22.23,18.02,40.251,40.25,40.251h267.226
			c17.414,14.804,39.955,23.751,64.547,23.751c55.026,0,99.793-44.768,99.793-99.794
			C471.814,233.268,427.049,188.501,372.021,188.501z M148.642,309.168c0,2.854-2.313,5.164-5.164,5.164H63.855
			c-2.852,0-5.166-2.312-5.166-5.164v-15.709c0-2.854,2.314-5.164,5.166-5.164h79.623c2.852,0,5.164,2.312,5.164,5.164V309.168z
			 M372.021,351.546c-34.935,0-63.25-28.318-63.25-63.253c0-34.932,28.315-63.25,63.25-63.25c34.934,0,63.25,28.318,63.25,63.25
			C435.271,323.227,406.955,351.546,372.021,351.546z"/>
		<path d="M395.582,319.466c-0.197-0.845-0.752-1.562-1.52-1.962c-0.771-0.401-1.674-0.446-2.479-0.125
			c-2.887,1.15-7.424,2.525-12.642,2.525c-7.395,0-13.6-2.5-17.942-7.227c-2.367-2.592-4.076-5.988-5.121-10.096h32.601
			c1.467,0,2.657-1.189,2.657-2.658v-6.023c0-1.469-1.19-2.658-2.657-2.658h-34.718v-2.145c0-1.625,0.003-3.161,0.259-4.613h34.459
			c1.467,0,2.656-1.189,2.656-2.658v-6.023c0-1.468-1.189-2.656-2.656-2.656h-32.086c1.934-6.39,7.208-16.863,22.147-16.863
			c3.98,0,8.232,0.793,11.971,2.233c0.787,0.304,1.666,0.259,2.416-0.125c0.753-0.381,1.306-1.063,1.524-1.877l1.774-6.604
			c0.393-1.457-0.37-2.979-1.773-3.535c-3.544-1.406-9.319-3.084-16.716-3.084c-11.516,0-21.52,4.354-28.916,12.572l-0.021,0.022
			c-4.375,4.626-7.575,10.547-9.356,17.26h-8.02c-1.468,0-2.656,1.188-2.656,2.657v6.023c0,1.469,1.188,2.658,2.656,2.658h6.122
			c-0.122,1.361-0.26,3.111-0.26,4.746v2.012h-5.862c-1.468,0-2.656,1.189-2.656,2.658v6.023c0,1.469,1.188,2.658,2.656,2.658h7.469
			c1.395,6.768,4.037,12.439,7.881,16.895l0.043,0.051c7.037,8.881,17.781,13.771,30.25,13.771c8.607,0,15.227-2.645,18.404-4.219
			c1.235-0.613,1.889-1.996,1.575-3.342L395.582,319.466z"/>
	</g>
</g>
<g>
</g>
<g>
</g>
<g>
</g>
<g>
</g>
<g>
</g>
<g>
</g>
<g>
</g>
<g>
</g>
<g>
</g>
<g>
</g>
<g>
</g>
<g>
</g>
<g>
</g>
<g>
</g>
<g>
</g>
</svg>
